<?xml version="1.0" encoding="UTF-8"?>
<svg width="1200pt" height="1200pt" version="1.1" viewBox="0 0 1200 1200" xmlns="http://www.w3.org/2000/svg">
 <g>
  <path d="m1200 600c0 214.36-114.36 412.44-300 519.62-185.64 107.18-414.36 107.18-600 0-185.64-107.18-300-305.26-300-519.62s114.36-412.44 300-519.62c185.64-107.18 414.36-107.18 600 0 185.64 107.18 300 305.26 300 519.62" fill="#d2d2d2"/>
  <path d="m665.75 560.7h-131.5c-5.2891 0-9.8242 2.2656-13.602 6.0469-3.0234 3.7773-4.5352 9.0703-4.5352 13.602 5.2891 41.562 40.809 73.305 83.129 73.305 42.32 0 77.84-31.738 83.129-73.305 0.75391-5.2891-0.75391-9.8242-4.5352-13.602-2.2656-3.7773-7.5586-6.0469-12.09-6.0469zm-6.8008 34.766h-118.65c-2.2656-5.2891-4.5352-10.578-6.0469-16.625h129.98c-0.75781 6.8008-3.0234 11.332-5.2891 16.625z" fill="#1c6c8e"/>
  <path d="m904.55 923.45-21.16-78.594c-13.602-54.41-58.945-94.465-114.87-102.02l-49.121-6.8047-14.359-43.074c40.055-27.961 70.281-71.039 81.617-122.43 14.359-7.5586 37.031-26.449 37.031-73.305 0-34.008-5.2891-55.168-17.383-65.746-2.2656-2.2656-5.2891-3.7773-8.3125-6.0469-11.336-103.54-94.465-184.39-198-184.39-102.78 0-186.66 80.105-198 185.15-3.0234 1.5117-6.0469 3.0234-7.5586 5.2891-12.848 12.09-18.137 32.496-18.137 66.504 0 46.855 22.672 65.746 37.031 73.305 12.09 51.387 42.32 94.465 81.617 122.43l-14.359 42.32-49.121 6.8008c-55.922 7.5586-100.51 47.609-114.87 102.02l-21.16 78.598c-2.2656 9.0703-0.75391 17.383 5.2891 24.938 5.2891 6.8008 13.602 10.578 21.914 10.578h554.7c9.0703 0 17.383-3.7773 21.914-10.578 6.0469-6.8008 7.5586-15.871 5.293-24.938zm-436.05-542.61c0.75391-9.0703 8.3125-14.359 16.625-12.09 29.473 6.8008 70.281 11.336 115.62 11.336s86.152-4.5352 115.62-11.336c7.5586-2.2656 15.113 3.7773 16.625 12.09 2.2656 16.625 3.7773 37.785 6.0469 55.922h-276.59c1.5117-18.891 3.7812-39.297 6.0469-55.922zm234.27 78.594-2.2656 44.586c0 7.5586-6.8008 13.602-14.359 13.602h-38.543c-7.5586 0-13.602-5.2891-14.359-12.848l-5.2891-45.344zm-130.74 0-5.2891 45.344c-0.75391 7.5586-6.8008 12.848-14.359 12.848h-38.543c-7.5586 0-14.359-6.0469-14.359-13.602l-2.2656-44.586zm-62.723 293.22 14.359-43.074c23.426 11.336 49.879 18.137 77.082 18.137 27.207 0 52.145-6.8008 76.328-17.383l14.359 43.074c-54.414 39.297-128.47 39.297-182.13-0.75391zm89.93-57.434c-75.57 0-141.32-58.191-156.43-139.05-1.5117-6.0469-6.0469-11.336-12.09-12.848-2.2656-0.75391-22.672-6.8008-22.672-45.344 0-20.402 2.2656-30.984 4.5352-37.031h5.2891c0 5.2891 3.7773 26.449 8.3125 26.449h22.672c4.5352 0 8.3125-4.5352 8.3125-9.0703 0 0 0.75391-7.5586 1.5117-18.895h13.602l2.2656 45.344c0.75391 20.402 17.383 36.273 37.785 36.273h38.543c18.895 0 35.52-14.359 37.785-33.25l6.0469-48.367h8.3125l6.0469 48.367c2.2656 18.895 18.137 33.25 37.785 33.25h38.543c20.402 0 37.031-15.871 37.785-36.273l2.2656-45.344h13.602c0.75391 11.336 1.5117 18.895 1.5117 18.895 0 5.2891 3.7773 9.0703 8.3125 9.0703h22.672c4.5352 0 8.3125-21.16 8.3125-26.449h5.2891c2.2656 6.0469 4.5352 15.871 4.5352 37.031 0 38.543-20.402 44.586-21.914 45.344-6.0469 1.5117-11.336 6.8008-12.848 12.848-12.848 80.859-78.594 139.05-155.68 139.05z" fill="#1c6c8e"/>
  <path d="m551.64 488.91c0 9.6016-7.7812 17.383-17.383 17.383-9.5977 0-17.379-7.7812-17.379-17.383 0-9.5977 7.7812-17.379 17.379-17.379 9.6016 0 17.383 7.7812 17.383 17.379" fill="#1c6c8e"/>
  <path d="m683.13 488.91c0 9.6016-7.7812 17.383-17.379 17.383-9.6016 0-17.383-7.7812-17.383-17.383 0-9.5977 7.7812-17.379 17.383-17.379 9.5977 0 17.379 7.7812 17.379 17.379" fill="#1c6c8e"/>
 </g>
</svg>
