<?xml version="1.0" standalone="no"?>
<!DOCTYPE svg PUBLIC "-//W3C//DTD SVG 20010904//EN"
 "http://www.w3.org/TR/2001/REC-SVG-20010904/DTD/svg10.dtd">
<svg version="1.0" xmlns="http://www.w3.org/2000/svg"
 width="1425.000000pt" height="399.000000pt" viewBox="0 0 1425.000000 399.000000"
 preserveAspectRatio="xMidYMid meet">

<g transform="translate(0.000000,399.000000) scale(0.100000,-0.100000)"
fill="#000000" stroke="none">
<path d="M4770 3970 c-236 -42 -428 -136 -595 -292 -173 -161 -278 -358 -315
-590 -19 -117 -8 -370 20 -478 50 -191 146 -358 283 -494 180 -179 393 -282
655 -317 87 -12 355 -7 399 6 l23 7 2 -313 3 -314 27 0 c25 0 47 31 243 330
l215 330 0 456 c0 375 -2 459 -14 468 -9 8 -82 11 -242 9 l-229 -3 -3 -247 -2
-246 -53 -13 c-29 -8 -100 -14 -162 -13 -92 1 -123 5 -188 27 -289 99 -478
393 -439 683 21 155 72 257 188 370 74 74 176 127 284 150 88 19 286 13 385
-11 33 -8 68 -14 77 -15 24 0 291 400 283 422 -7 17 -74 49 -140 67 -162 42
-522 53 -705 21z m634 -44 c50 -9 109 -25 133 -36 l44 -19 -127 -190 c-117
-176 -128 -189 -149 -181 -81 31 -363 43 -460 20 -28 -7 -88 -30 -134 -52 -67
-32 -100 -56 -160 -117 -135 -136 -191 -268 -191 -451 0 -198 60 -341 205
-485 99 -100 188 -152 307 -180 85 -20 252 -19 333 1 l65 16 0 244 0 244 210
0 210 0 0 -445 0 -444 -207 -318 -208 -318 -3 324 c-2 302 -3 323 -20 316 -79
-30 -354 -36 -490 -10 -442 85 -764 391 -855 814 -27 127 -28 359 -3 476 92
420 443 733 901 804 96 15 495 6 599 -13z"/>
<path d="M229 3933 c-25 -29 -219 -371 -219 -385 0 -33 23 -38 177 -38 l153 0
2 -1156 c3 -1089 4 -1157 21 -1168 12 -8 22 -8 34 0 9 6 117 154 240 330 l222
319 1 323 c0 177 3 322 8 322 4 0 167 -149 362 -330 l355 -330 312 0 c308 0
312 0 324 21 10 20 -20 52 -365 398 l-376 377 62 30 c174 86 325 277 380 481
31 117 31 284 -1 381 -61 187 -220 344 -414 409 l-82 28 -590 3 c-559 3 -592
2 -606 -15z m1212 -37 c181 -39 369 -194 430 -356 66 -174 45 -396 -54 -572
-81 -143 -220 -270 -347 -315 -28 -10 -50 -20 -50 -23 0 -3 171 -176 380 -385
209 -209 380 -383 380 -387 0 -5 -129 -8 -287 -8 l-288 1 -385 358 -385 358
-3 -354 -2 -355 -223 -319 -222 -320 -3 1165 -2 1166 -166 0 c-91 0 -164 4
-162 8 1 4 48 85 102 180 l99 172 561 0 c442 0 575 -3 627 -14z"/>
<path d="M830 3116 c0 -240 2 -436 4 -436 2 0 45 65 95 144 l91 144 98 4 c82
3 106 9 155 33 192 95 236 325 87 459 -81 73 -110 80 -332 84 l-198 4 0 -436z
m412 378 c59 -20 126 -77 149 -128 26 -58 24 -139 -5 -201 -46 -100 -143 -153
-293 -162 l-96 -6 -60 -94 c-32 -51 -63 -93 -68 -93 -5 0 -9 154 -9 350 l0
350 168 0 c126 0 180 -4 214 -16z"/>
<path d="M12541 3936 c-8 -10 -10 -295 -9 -1062 l3 -1049 234 -3 c181 -2 236
1 243 10 4 7 8 257 8 555 l0 541 53 13 c74 19 165 15 218 -8 52 -24 122 -91
152 -147 20 -37 22 -56 21 -176 -1 -219 -46 -402 -156 -632 -34 -72 -58 -133
-55 -142 6 -14 39 -16 265 -16 196 0 262 3 270 13 17 20 70 160 106 280 54
176 79 345 80 532 1 182 -16 264 -80 385 -70 134 -213 277 -332 333 -63 29
-64 29 -212 25 -107 -3 -153 -8 -165 -18 -9 -8 -49 -61 -88 -118 l-72 -104 -3
388 c-1 265 -6 391 -13 401 -17 19 -451 19 -468 -1z m441 -467 l3 -441 108
155 c125 181 110 172 297 172 104 -1 120 -3 165 -27 101 -53 238 -192 300
-303 18 -33 44 -94 57 -135 21 -67 23 -94 22 -250 -1 -242 -41 -452 -132 -685
l-39 -100 -237 -3 c-130 -1 -236 0 -236 2 0 3 22 49 49 103 57 115 104 249
131 370 25 118 44 296 37 360 -12 120 -104 242 -212 282 -68 26 -164 27 -250
3 l-60 -17 -3 -553 -2 -552 -208 2 -207 3 -3 1028 -2 1027 210 0 210 0 2 -441z"/>
<path d="M11668 3718 c-13 -11 -388 -630 -427 -706 -22 -41 -1 -51 112 -54
l102 -3 5 -410 c5 -376 7 -414 24 -455 62 -143 166 -239 301 -275 69 -18 245
-12 280 10 11 7 71 89 134 183 84 127 111 176 106 190 -5 19 -16 21 -150 24
-126 3 -147 5 -172 24 -61 45 -63 58 -63 401 l0 313 178 2 177 3 0 195 0 195
-175 5 -175 5 -3 170 c-2 145 -5 172 -19 183 -11 8 -53 12 -118 12 -66 0 -107
-4 -117 -12z m212 -208 l0 -180 180 0 180 0 0 -170 0 -170 -180 0 -180 0 0
-317 c0 -188 4 -333 10 -355 12 -41 50 -91 84 -111 12 -7 77 -14 158 -17 l138
-5 -111 -167 -111 -167 -65 -7 c-169 -18 -270 14 -367 116 -62 65 -100 137
-116 220 -6 29 -10 219 -10 431 l0 378 -110 3 -110 3 208 347 207 347 98 1 97
0 0 -180z"/>
<path d="M2898 3380 c-261 -47 -470 -209 -562 -436 -58 -143 -74 -365 -36
-521 52 -219 220 -428 430 -537 126 -65 210 -87 366 -93 139 -6 321 10 348 31
9 6 67 105 130 220 92 168 113 213 105 228 -12 23 -33 23 -83 -2 -86 -41 -164
-55 -306 -54 -150 1 -209 15 -301 75 -75 47 -164 149 -190 216 -33 82 -34 229
-2 289 33 63 125 141 185 159 130 38 271 -8 293 -97 11 -42 -26 -114 -69 -134
-32 -16 -38 -16 -78 -1 -24 10 -49 17 -56 17 -12 0 -58 -67 -153 -224 -56 -91
-55 -99 19 -139 79 -43 170 -60 299 -55 104 4 116 7 185 40 113 56 213 167
259 288 27 70 37 237 19 319 -42 192 -189 337 -405 396 -69 19 -322 29 -397
15z m360 -46 c229 -48 385 -207 414 -424 20 -156 -25 -299 -132 -414 -71 -75
-135 -112 -232 -132 -116 -25 -291 1 -370 54 l-27 18 81 129 c45 72 82 131 84
133 1 2 21 -3 45 -11 97 -33 189 43 189 155 0 39 -6 54 -32 84 -74 84 -238
106 -353 46 -53 -27 -142 -121 -166 -175 -32 -72 -32 -206 0 -289 45 -117 156
-229 281 -285 148 -67 388 -65 553 6 26 11 47 18 47 15 0 -3 -48 -92 -107
-199 l-107 -193 -80 -12 c-110 -17 -305 -15 -393 3 -163 35 -273 97 -409 232
-87 87 -106 113 -147 195 -61 125 -80 206 -80 350 0 170 33 297 109 417 162
254 483 369 832 297z"/>
<path d="M9570 3369 c-81 -16 -92 -25 -159 -135 -35 -58 -68 -107 -72 -110 -4
-2 -25 49 -46 113 l-38 118 -237 3 c-219 2 -237 1 -242 -15 -3 -10 90 -355
207 -768 l212 -750 320 0 320 0 94 185 c75 149 96 181 102 165 4 -11 32 -94
61 -185 l53 -165 286 -3 c221 -2 289 1 297 10 5 7 74 135 152 283 78 149 153
288 166 310 40 70 95 208 115 290 33 137 24 253 -28 364 -35 76 -175 215 -263
261 l-65 35 -185 -1 c-120 0 -193 -4 -206 -12 -12 -6 -52 -64 -90 -129 -37
-65 -73 -126 -79 -135 -10 -15 -17 -10 -54 43 -123 175 -390 273 -621 228z
m315 -52 c122 -39 262 -154 314 -257 20 -42 32 -56 38 -47 6 7 49 80 97 163
102 177 77 164 307 164 143 0 147 -1 207 -31 34 -16 95 -62 137 -100 161 -152
198 -328 117 -564 -25 -71 -184 -386 -359 -712 l-45 -83 -263 0 -263 0 -37
118 c-20 64 -51 164 -69 222 l-33 105 -112 -222 -111 -223 -289 0 c-160 0
-292 3 -294 8 -5 7 -417 1459 -417 1467 0 3 94 5 208 5 l208 0 48 -151 c26
-83 50 -148 54 -145 3 4 45 69 92 144 83 132 87 137 130 149 61 17 270 10 335
-10z"/>
<path d="M9504 3001 c-59 -10 -151 -39 -159 -50 -5 -9 203 -761 214 -773 3 -4
55 98 114 226 133 287 158 387 122 474 -42 100 -149 145 -291 123z m176 -53
c83 -43 108 -120 79 -248 -10 -47 -179 -420 -189 -420 -5 0 -181 616 -184 645
-2 15 121 44 189 44 44 1 73 -5 105 -21z"/>
<path d="M10389 2994 c-81 -17 -137 -36 -140 -47 -5 -16 226 -736 233 -729 17
17 218 452 233 505 22 75 8 138 -41 195 -64 76 -165 103 -285 76z m196 -50
c21 -11 53 -37 69 -58 45 -55 43 -131 -6 -241 -66 -148 -159 -337 -164 -333
-9 10 -195 611 -190 615 3 3 34 14 68 24 80 24 169 21 223 -7z"/>
<path d="M5985 3348 c-3 -7 -4 -353 -3 -768 l3 -755 229 -3 c160 -2 233 1 242
9 12 9 14 106 14 557 l0 545 54 -6 c74 -7 136 -37 194 -91 27 -25 56 -46 64
-46 20 0 238 331 238 360 0 53 -156 164 -275 195 -79 20 -753 23 -760 3z m695
-27 c113 -19 234 -83 288 -151 l19 -25 -104 -159 -104 -158 -45 42 c-66 60
-133 88 -224 92 l-75 3 -3 -557 -2 -558 -210 0 -210 0 0 740 0 740 308 0 c169
0 332 -4 362 -9z"/>
<path d="M7746 3340 c-220 -40 -409 -177 -510 -370 -123 -234 -110 -571 29
-796 145 -232 387 -356 665 -341 330 18 580 219 671 542 33 114 33 316 0 430
-73 260 -243 436 -496 515 -79 24 -274 36 -359 20z m279 -364 c57 -34 117
-109 146 -183 32 -83 39 -292 12 -378 l-19 -60 -92 -5 c-78 -4 -90 -7 -82 -20
6 -10 10 -11 10 -2 0 8 22 12 75 12 41 0 75 -3 75 -7 -1 -20 -30 -43 -56 -44
-24 -1 -25 -3 -6 -6 12 -2 22 -7 22 -11 0 -16 -85 -82 -124 -97 -55 -21 -154
-17 -206 8 -51 25 -116 87 -101 97 9 5 7 9 -7 12 -11 3 -25 16 -32 28 -12 22
-11 22 54 18 36 -1 66 0 66 5 0 4 -31 7 -69 7 l-69 0 -16 40 c-38 95 -38 294
0 391 39 100 123 188 204 214 67 22 159 14 215 -19z"/>
<path d="M7956 2733 c-49 -77 -93 -196 -108 -285 -6 -40 -19 -82 -29 -93 -27
-32 -31 -61 -15 -93 25 -49 87 -58 124 -19 28 30 28 71 1 109 -20 27 -21 38
-16 117 7 90 32 194 66 274 11 26 19 47 16 47 -2 0 -20 -26 -39 -57z"/>
<path d="M8134 2624 c-36 -65 -65 -145 -78 -216 -7 -37 -6 -38 22 -38 l29 0 5
88 c4 67 12 104 36 160 16 39 28 72 27 72 -2 0 -21 -30 -41 -66z"/>
<path d="M7732 2628 c-39 -68 -58 -118 -76 -195 l-14 -63 29 0 c28 0 29 2 29
48 0 55 31 185 55 231 26 51 9 35 -23 -21z"/>
<path d="M7742 2295 c0 -16 2 -22 5 -12 2 9 2 23 0 30 -3 6 -5 -1 -5 -18z"/>
<path d="M8002 2290 c0 -14 2 -19 5 -12 2 6 2 18 0 25 -3 6 -5 1 -5 -13z"/>
<path d="M7750 2254 c0 -13 37 -47 67 -63 47 -24 129 -7 163 35 8 9 -3 5 -24
-10 -63 -42 -151 -30 -190 26 -9 12 -16 18 -16 12z"/>
<path d="M360 645 l0 -435 6925 0 6925 0 0 435 0 435 -6925 0 -6925 0 0 -435z
m7545 321 c104 -49 159 -141 158 -266 -1 -89 -26 -153 -86 -213 -50 -50 -97
-69 -168 -69 -67 0 -118 24 -170 79 -53 55 -72 99 -77 180 -6 91 9 146 56 208
74 97 186 129 287 81z m1585 3 c63 -28 80 -47 80 -86 0 -40 -28 -58 -44 -28
-6 11 -25 34 -42 52 -27 28 -39 33 -77 33 -59 0 -97 -33 -97 -85 0 -51 33 -80
124 -106 162 -47 216 -156 129 -259 -91 -109 -291 -92 -353 30 -25 49 -25 57
0 70 17 9 24 4 54 -37 43 -60 82 -83 139 -83 61 0 107 37 107 85 0 47 -41 78
-131 100 -61 15 -80 25 -121 65 -44 43 -48 50 -48 94 0 58 19 97 64 131 64 49
143 57 216 24z m2888 1 c87 -39 102 -56 102 -111 0 -41 -3 -49 -19 -49 -13 0
-24 14 -36 46 -22 57 -62 84 -127 84 -85 0 -145 -77 -155 -198 -8 -98 10 -172
55 -223 33 -36 44 -42 88 -46 62 -6 116 16 141 58 20 33 53 39 53 10 0 -11
-12 -34 -26 -51 -80 -95 -247 -98 -342 -7 -63 60 -77 99 -77 217 0 93 3 111
25 154 59 116 203 168 318 116z m-11519 -3 c8 -11 6 -18 -9 -32 -17 -16 -20
-31 -20 -112 l0 -93 120 0 120 0 0 90 c0 78 -3 93 -20 107 -44 38 -21 53 81
53 79 0 96 -15 60 -54 -20 -21 -21 -32 -21 -224 0 -192 1 -202 21 -221 39 -36
19 -51 -70 -51 -88 0 -104 10 -72 44 18 19 21 34 21 119 l0 97 -120 0 -120 0
0 -101 c0 -83 3 -104 17 -114 9 -7 14 -19 10 -29 -5 -13 -21 -16 -86 -16 -88
0 -104 10 -72 44 20 21 21 33 21 234 0 201 -1 212 -20 222 -22 12 -27 36 -7
43 28 12 155 7 166 -6z m1931 -11 c37 -99 15 -131 -50 -72 -30 27 -49 36 -75
36 l-35 0 0 -218 c0 -209 1 -218 21 -230 16 -11 18 -16 9 -28 -15 -17 -165
-20 -175 -3 -4 6 2 21 14 33 20 21 21 33 21 234 l0 212 -40 0 c-33 0 -48 -7
-77 -35 -20 -20 -41 -34 -47 -32 -15 5 -11 94 4 112 10 12 50 15 216 15 l204
0 10 -24z m2018 -221 c2 -227 3 -240 23 -261 32 -34 16 -44 -67 -44 -58 0 -76
3 -81 16 -3 9 3 21 16 30 20 15 21 22 21 214 0 189 -1 201 -20 212 -11 7 -20
19 -20 26 0 16 78 53 105 49 19 -2 20 -11 23 -242z m2449 0 c3 -230 4 -241 24
-257 12 -10 19 -24 15 -33 -7 -20 -89 -20 -106 0 -10 12 -16 13 -39 1 -26 -14
-56 -19 -100 -17 -35 2 -97 69 -111 121 -32 120 50 248 152 238 24 -3 51 -8
61 -12 15 -7 17 -1 17 56 0 60 -2 66 -27 77 -32 15 -22 27 40 53 75 31 72 41
74 -227z m1643 -2 c5 -224 6 -243 24 -256 12 -9 17 -20 13 -31 -5 -13 -21 -16
-81 -16 -83 0 -99 10 -67 44 20 21 21 33 21 216 0 185 -1 195 -22 217 -12 13
-20 25 -17 27 18 16 88 45 104 43 19 -2 20 -11 25 -244z m3738 235 c9 -9 12
-78 12 -248 0 -227 1 -236 21 -248 16 -11 18 -16 9 -28 -15 -17 -136 -20 -160
-4 -13 9 -12 13 8 29 21 19 22 24 22 223 0 194 -1 204 -20 216 -25 16 -19 27
28 52 43 22 63 25 80 8z m-10896 -35 c22 -20 23 -51 1 -75 -33 -36 -93 -13
-93 37 0 49 55 72 92 38z m11105 -9 c15 -24 15 -29 2 -53 -28 -50 -101 -33
-101 24 0 55 68 75 99 29z m617 10 c33 -33 9 -94 -36 -94 -28 0 -58 28 -58 53
0 48 61 74 94 41z m-7662 -104 l3 -55 43 -3 c38 -3 43 -6 40 -25 -2 -18 -11
-23 -45 -25 l-43 -3 0 -97 c0 -131 4 -140 49 -144 28 -2 36 -7 36 -23 0 -18
-8 -20 -75 -23 -99 -4 -100 -3 -100 159 0 125 -1 128 -22 131 -37 5 -33 33 7
57 23 13 43 37 55 64 34 75 47 72 52 -13z m-4318 -54 c57 -24 66 -47 66 -172
0 -104 1 -113 22 -126 20 -13 21 -17 9 -32 -15 -18 -105 -23 -116 -7 -3 6 -20
4 -42 -5 -90 -38 -191 37 -163 121 19 59 105 115 176 115 28 0 31 16 8 48 -19
27 -43 28 -91 2 -45 -24 -57 -25 -73 -5 -10 12 -10 18 1 32 35 41 138 56 203
29z m274 -136 c2 -130 5 -146 23 -166 32 -34 16 -44 -67 -44 -58 0 -76 3 -81
16 -3 9 3 21 16 30 19 14 21 24 21 119 0 99 -1 104 -26 124 -14 11 -23 25 -19
32 12 18 68 39 100 36 l30 -2 3 -145z m188 125 l16 -25 30 25 c52 44 118 25
104 -29 -7 -29 -37 -41 -64 -27 -29 16 -53 -35 -59 -128 -5 -71 -4 -80 16
-100 38 -38 21 -51 -63 -51 -83 0 -99 10 -67 44 18 20 21 34 21 121 0 94 -1
100 -27 127 -26 27 -26 28 -8 48 27 29 80 27 101 -5z m1001 1 l19 -23 28 23
c46 41 106 28 106 -23 0 -27 -31 -46 -64 -37 -38 9 -56 -36 -56 -137 0 -65 3
-84 17 -94 9 -7 14 -19 10 -29 -5 -13 -21 -16 -81 -16 -83 0 -99 10 -67 44 18
20 21 34 21 123 0 87 -3 102 -20 118 -38 35 -19 75 36 75 22 0 38 -8 51 -24z
m423 9 c52 -27 60 -49 60 -171 0 -103 2 -113 22 -126 14 -9 19 -20 15 -31 -5
-13 -19 -17 -61 -17 -30 0 -58 4 -61 10 -3 5 -19 3 -39 -7 -71 -33 -168 18
-168 89 0 19 5 45 11 56 23 44 111 92 167 92 28 0 33 30 8 54 -21 22 -48 20
-93 -6 -44 -25 -74 -19 -69 14 7 50 142 77 208 43z m270 0 c0 -14 3 -14 30 0
38 20 100 19 129 -1 38 -27 51 -74 51 -185 0 -92 2 -102 23 -120 19 -16 20
-20 7 -29 -8 -5 -44 -10 -80 -10 -36 0 -72 5 -80 10 -13 9 -12 13 8 29 20 18
22 27 22 128 0 121 -5 133 -57 133 -45 0 -53 -21 -53 -136 0 -86 3 -101 21
-120 32 -34 16 -44 -66 -44 -82 0 -98 10 -66 44 19 20 21 34 21 127 0 103 -1
106 -25 119 -32 17 -28 30 16 52 43 23 99 24 99 3z m513 6 c35 -14 57 -39 57
-67 0 -40 -28 -41 -64 0 -37 40 -63 45 -96 18 -37 -30 -19 -58 51 -83 108 -40
145 -103 97 -164 -57 -73 -199 -73 -256 -1 -42 54 1 76 53 27 41 -40 75 -47
106 -22 34 28 18 50 -57 78 -128 49 -151 142 -50 204 34 21 117 26 159 10z
m241 -7 c5 -14 8 -14 28 0 12 9 42 16 65 16 33 0 50 -7 79 -32 46 -40 64 -82
64 -148 0 -103 -54 -170 -145 -178 -35 -3 -60 0 -70 8 -26 21 -21 -82 5 -105
33 -30 9 -45 -70 -45 -79 0 -103 15 -70 45 19 17 20 31 20 196 0 168 -1 179
-20 189 -31 16 -24 36 18 53 48 21 88 21 96 1z m719 5 c12 -6 32 -21 45 -32
20 -19 22 -29 22 -138 0 -109 1 -118 22 -131 37 -24 17 -48 -40 -48 -26 0 -53
5 -58 10 -7 7 -20 6 -40 -5 -36 -19 -65 -19 -108 -1 -125 52 -63 207 93 232
45 7 54 29 25 58 -21 21 -46 20 -88 -5 -43 -25 -79 -18 -74 14 6 46 142 76
201 46z m277 -4 c0 -14 3 -14 30 0 48 25 105 20 142 -14 l33 -29 3 -119 c3
-102 6 -121 24 -140 31 -33 15 -43 -68 -43 -83 0 -101 13 -65 49 18 18 21 33
21 114 0 107 -13 137 -60 137 -47 0 -60 -30 -60 -137 0 -81 3 -96 21 -114 36
-36 18 -49 -65 -49 -83 0 -99 10 -67 44 19 20 21 34 21 125 0 98 -1 104 -25
123 -29 23 -26 33 18 52 45 20 97 20 97 1z m991 -8 c50 -34 59 -59 59 -177 0
-96 2 -106 21 -118 16 -11 18 -16 9 -28 -14 -16 -101 -19 -116 -4 -7 7 -20 6
-40 -5 -51 -27 -106 -15 -149 31 -65 70 8 180 133 200 34 5 42 10 42 28 0 49
-36 57 -104 24 -37 -18 -47 -19 -60 -8 -22 18 -20 35 7 53 53 34 150 36 198 4z
m263 7 c5 -14 8 -14 28 0 13 9 43 16 69 16 41 0 51 -4 78 -35 31 -35 31 -37
31 -147 0 -100 2 -114 21 -134 32 -34 16 -44 -66 -44 -82 0 -98 10 -66 44 18
19 21 34 21 117 0 108 -13 139 -59 139 -45 0 -51 -15 -51 -133 0 -91 3 -112
17 -122 9 -7 14 -19 10 -29 -5 -13 -21 -16 -81 -16 -82 0 -103 12 -68 41 20
16 22 27 22 128 0 100 -2 111 -20 121 -31 16 -24 36 18 53 48 21 88 21 96 1z
m1573 -8 l19 -23 28 23 c46 41 106 28 106 -23 0 -27 -31 -46 -64 -37 -20 5
-27 0 -41 -26 -9 -18 -19 -65 -22 -105 -5 -65 -4 -74 17 -93 40 -37 21 -52
-64 -52 -83 0 -99 10 -67 44 18 20 21 34 21 123 0 87 -3 102 -20 118 -38 35
-19 75 36 75 22 0 38 -8 51 -24z m423 9 c53 -27 60 -49 60 -172 0 -102 2 -113
20 -123 24 -13 26 -36 4 -44 -25 -10 -102 -7 -109 4 -3 5 -19 3 -39 -7 -71
-33 -168 18 -168 89 0 19 5 45 11 56 23 44 111 92 167 92 29 0 32 25 7 52 -21
23 -43 23 -93 -3 -47 -24 -73 -19 -68 13 7 50 142 77 208 43z m1124 -1 c3 -9
6 -71 6 -139 0 -99 3 -127 16 -139 23 -23 50 -19 73 10 18 23 21 41 21 116 0
81 -2 92 -22 109 -23 19 -23 19 -4 34 11 8 34 18 53 21 62 12 63 10 63 -150 0
-135 1 -146 20 -156 44 -24 18 -50 -50 -50 -30 0 -40 5 -45 20 -6 19 -6 19
-34 -1 -33 -24 -89 -29 -125 -9 -48 25 -60 57 -64 170 -3 87 -7 108 -23 123
-25 24 -24 26 14 42 44 19 93 19 101 -1z m393 -8 l19 -23 28 23 c46 41 106 28
106 -23 0 -27 -31 -46 -64 -37 -20 5 -27 0 -41 -26 -9 -18 -19 -65 -22 -105
-5 -65 -4 -74 17 -93 40 -37 21 -52 -64 -52 -83 0 -99 10 -67 44 18 20 21 34
21 123 0 87 -3 102 -20 118 -38 35 -19 75 36 75 22 0 38 -8 51 -24z m556 4
c18 -16 2 -45 -26 -48 -27 -3 -27 -3 -11 -34 24 -46 15 -127 -19 -171 l-26
-34 30 -29 c108 -103 -110 -215 -269 -137 -48 23 -56 63 -18 88 34 23 72 17
68 -11 -4 -29 21 -47 68 -47 44 0 90 25 90 49 0 39 -19 54 -73 54 -153 1 -235
178 -134 289 41 44 72 51 197 45 63 -4 119 -10 123 -14z m304 0 c38 -23 55
-52 51 -88 -4 -36 -73 -87 -140 -102 -83 -18 -79 -16 -66 -45 13 -30 55 -55
90 -55 13 0 40 11 60 25 41 28 58 31 58 12 0 -40 -72 -87 -133 -87 -72 0 -126
36 -158 105 -32 68 -18 147 34 204 48 52 145 67 204 31z m209 -5 l16 -25 30
25 c52 44 118 25 104 -29 -7 -29 -37 -41 -65 -27 -31 17 -61 -55 -61 -147 0
-61 3 -73 21 -86 13 -9 19 -21 16 -30 -5 -13 -23 -16 -81 -16 -83 0 -99 10
-67 44 18 20 21 34 21 121 0 94 -1 100 -27 127 -26 27 -26 28 -8 48 27 29 80
27 101 -5z m319 15 c3 -5 -1 -20 -10 -34 -14 -22 -14 -30 -1 -87 28 -119 51
-168 78 -169 17 0 40 53 58 140 l21 93 -22 23 c-30 32 -17 44 46 44 62 0 75
-12 47 -43 -12 -14 -27 -59 -40 -122 -11 -55 -30 -125 -41 -156 -41 -107 -146
-195 -209 -173 -30 11 -40 38 -21 60 9 11 23 13 50 9 45 -8 74 6 93 43 l14 27
-42 0 c-40 0 -42 2 -69 55 -15 30 -38 99 -51 153 -14 54 -30 105 -36 112 -7 8
-9 19 -5 25 8 13 132 13 140 0z m1313 -140 c2 -133 4 -146 25 -168 30 -32 12
-42 -76 -42 -53 0 -69 3 -74 16 -4 10 0 20 10 26 14 8 17 27 17 123 0 104 -2
115 -20 125 -11 6 -20 15 -20 20 0 20 65 50 100 48 l35 -3 3 -145z m208 136
c5 -12 9 -12 32 0 15 8 46 14 70 14 35 0 49 -6 73 -29 29 -29 29 -31 29 -145
0 -105 2 -117 21 -135 39 -36 19 -51 -65 -51 -83 0 -99 10 -67 44 18 19 21 34
21 120 0 115 -8 136 -53 136 -51 0 -57 -13 -57 -129 0 -93 2 -107 21 -127 32
-34 16 -44 -67 -44 -83 0 -101 13 -65 49 18 18 21 33 21 121 0 95 -1 100 -25
116 -35 23 -31 39 13 57 47 20 91 21 98 3z m414 -131 c0 -133 2 -147 21 -166
36 -36 18 -49 -65 -49 -83 0 -99 10 -67 44 19 20 21 34 21 125 0 98 -1 103
-27 125 l-27 23 39 21 c22 12 55 21 73 22 l32 0 0 -145z m339 134 c54 -19 69
-71 25 -91 -23 -11 -28 -9 -60 26 -40 44 -60 44 -91 -3 -48 -71 -21 -211 44
-227 26 -7 39 -2 100 36 18 11 25 12 35 2 26 -26 -77 -92 -146 -92 -81 0 -147
66 -154 155 -6 69 1 96 35 136 55 65 131 86 212 58z"/>
<path d="M7746 915 c-49 -45 -70 -109 -71 -210 0 -103 26 -177 77 -220 90 -76
198 43 198 219 0 89 -21 156 -65 201 -42 45 -97 49 -139 10z"/>
<path d="M7065 723 c-25 -24 -36 -62 -36 -120 0 -103 65 -158 119 -100 19 20
22 35 22 110 0 74 -3 90 -20 107 -24 24 -63 26 -85 3z"/>
<path d="M1421 617 c-71 -25 -91 -97 -36 -133 23 -15 27 -15 50 0 22 15 25 23
25 81 0 36 -1 65 -2 64 -2 0 -18 -5 -37 -12z"/>
<path d="M3304 618 c-64 -17 -90 -93 -43 -130 26 -22 32 -22 58 0 19 15 22 25
19 78 l-3 60 -31 -8z"/>
<path d="M4417 722 c-14 -15 -17 -39 -17 -134 l0 -115 44 7 c25 4 52 12 60 19
41 34 46 159 9 209 -25 34 -72 41 -96 14z"/>
<path d="M5053 619 c-53 -15 -78 -72 -53 -118 13 -26 36 -32 65 -19 23 10 25
16 25 80 0 37 -1 68 -2 67 -2 0 -17 -5 -35 -10z"/>
<path d="M6303 618 c-38 -10 -63 -42 -63 -80 0 -38 34 -71 63 -62 35 10 38 17
35 86 l-3 64 -32 -8z"/>
<path d="M8574 618 c-65 -17 -91 -92 -45 -130 29 -22 33 -22 60 0 19 15 22 25
19 78 l-3 60 -31 -8z"/>
<path d="M10487 739 c-11 -6 -25 -26 -33 -45 -43 -103 22 -235 93 -189 50 33
66 113 37 185 -22 56 -56 73 -97 49z"/>
<path d="M10891 724 c-21 -27 -46 -102 -38 -111 11 -10 90 22 108 45 24 31 24
54 1 75 -26 24 -47 21 -71 -9z"/>
</g>
</svg>
